<svg width="24" height="24" viewBox="0 0 24 24" fill="none" xmlns="http://www.w3.org/2000/svg"><path d="M5.78 1.5h5.44c.092 0 .169.033.218.076a.16.16 0 0 1 .062.124v9.6a.16.16 0 0 1-.062.124.333.333 0 0 1-.218.076H5.78a.333.333 0 0 1-.218-.076.161.161 0 0 1-.062-.124V1.7c0-.041.016-.084.062-.124A.333.333 0 0 1 5.78 1.5z" fill="#7289F9" fill-opacity=".45" stroke="#7289F9"></path><path d="M11.989 22C9.236 22 7 19.527 7 16.483V11h1.951v5.483c0 1.854 1.36 3.517 3.037 3.517H18v2h-6.011z" fill="#A6B4E8"></path><path d="M8.942 12.15v4.833c0 2.14 1.586 3.889 3.549 3.889h5.46v.977h-5.46c-2.446 0-4.441-2.186-4.441-4.866V12.15h.892zM9.992 11H7v5.983C7 20.296 9.467 23 12.49 23H19v-3h-6.51c-1.374 0-2.498-1.51-2.498-3.017V11z" fill="#7289F9"></path><path opacity=".75" d="M19 20h-2v3h2v-3z" fill="#3050EF"></path><path opacity=".25" d="M17 20h-2v3h2v-3z" fill="#3050EF"></path></svg>